<?xml version="1.0" encoding="UTF-8"?>
<svg version="1.1" xmlns="http://www.w3.org/2000/svg" width="512" height="512">
<path d="M0 0 C3.1171875 -0.46875 3.1171875 -0.46875 6.875 -0.5 C8.72738281 -0.54640625 8.72738281 -0.54640625 10.6171875 -0.59375 C14 0 14 0 16.234375 2.33203125 C16.81703125 3.21246094 17.3996875 4.09289062 18 5 C37.75494144 24.98900473 65.64993874 36.83868262 93.66186523 37.24145508 C115.1885401 37.30772596 133.62983423 32.67393499 152.734375 22.671875 C156 21 156 21 159 20 C159.11689269 39.41933645 159.20501723 58.83860133 159.25906086 78.25821686 C159.28482323 87.27545444 159.31993601 96.2924732 159.37719727 105.30957031 C159.42709263 113.17049798 159.45930532 121.03126714 159.47044247 128.89234877 C159.47695091 133.05335587 159.49220604 137.21390958 159.52865028 141.37477112 C159.56270706 145.2949895 159.57303371 149.21456976 159.56553841 153.13492203 C159.56690866 154.56999815 159.57678404 156.00509665 159.59602737 157.4400444 C159.71422236 166.71215176 158.98413373 172.65773126 152.59254932 179.50858307 C146.23482715 185.42817914 138.78096209 185.2929195 130.61392212 185.26069641 C129.58115249 185.26452196 128.54838286 185.26834751 127.48431718 185.27228898 C124.0306711 185.28259106 120.57719213 185.27863208 117.12353516 185.2746582 C114.6445246 185.27900622 112.16551539 185.28418966 109.68650818 185.29014587 C103.65586054 185.30214711 97.62527835 185.30468841 91.59462477 185.30234561 C86.69116424 185.30056059 81.78771719 185.30231605 76.88425827 185.30657005 C76.18563881 185.30716524 75.48701935 185.30776043 74.76722961 185.30837366 C73.34785093 185.30958544 71.92847225 185.31079958 70.50909357 185.31201603 C57.20585161 185.32288593 43.90263501 185.32073172 30.59939162 185.31463119 C18.43911522 185.30946288 6.27891894 185.32071616 -5.88134162 185.33972941 C-18.37842141 185.35911894 -30.87546331 185.36736183 -43.37255824 185.36360615 C-50.38433826 185.36169575 -57.39605011 185.3641659 -64.40781784 185.37832069 C-71.00209328 185.39149835 -77.59623498 185.38895932 -84.19051933 185.37590981 C-86.60880652 185.37354343 -89.02710499 185.37628086 -91.44537926 185.38453293 C-94.75042369 185.39499656 -98.05492961 185.38690222 -101.35995483 185.3742218 C-102.31337434 185.38159609 -103.26679385 185.38897037 -104.24910486 185.39656812 C-111.41011005 185.33890134 -117.49332532 183.99242879 -123.75 180.4375 C-131.18422221 172.38375927 -131.71154401 163.8067713 -131.56762695 153.27880859 C-131.56621389 151.81922454 -131.56701351 150.35963694 -131.56983948 148.90005493 C-131.57126498 144.96657087 -131.54201746 141.03386036 -131.50696969 137.10055494 C-131.47556032 132.97931891 -131.47276403 128.85806211 -131.46684265 124.73672485 C-131.45134679 116.94537538 -131.41037656 109.15437971 -131.3600952 101.36318552 C-131.30406855 92.48771918 -131.27668186 83.61223529 -131.25161803 74.73663592 C-131.19945646 56.49089057 -131.11159775 38.24547381 -131 20 C-130.25411118 20.40978592 -129.50822235 20.81957184 -128.73973083 21.24177551 C-127.75626175 21.78049789 -126.77279266 22.31922028 -125.75952148 22.87426758 C-124.30037575 23.67457146 -124.30037575 23.67457146 -122.81175232 24.49104309 C-119.29072993 26.38063736 -115.72527421 28.09334411 -112.0625 29.6875 C-111.38646729 29.98221191 -110.71043457 30.27692383 -110.01391602 30.58056641 C-88.79610316 39.57052842 -63.88583171 39.56904247 -42.3125 31.75 C-26.19216987 25.06644729 -9.88622653 14.8293398 0 0 Z M-9 52 C-9 78.4 -9 104.8 -9 132 C-4.36299651 131.08029143 -4.36299651 131.08029143 -0.33984375 129.2421875 C0.35641113 128.87182373 1.05266602 128.50145996 1.77001953 128.11987305 C2.52653809 127.70906494 3.28305664 127.29825684 4.0625 126.875 C4.87831543 126.43905518 5.69413086 126.00311035 6.53466797 125.55395508 C9.35992868 124.0423755 12.17996488 122.52130454 15 121 C18.94760063 118.87878512 22.89646238 116.75992622 26.84579468 114.64193726 C28.03184371 114.00569288 29.21773655 113.36915724 30.4034729 112.73233032 C42.87398949 106.03536308 55.42204474 99.49307902 68 93 C68 92.01 68 91.02 68 90 C58.10927218 85.04307531 48.21747958 80.08828273 38.32430363 75.13624573 C33.73105243 72.83700551 29.138178 70.5370191 24.54614258 68.23535156 C20.11853431 66.01613372 15.68996533 63.7988444 11.26070976 61.58291626 C9.5669935 60.73513087 7.87363072 59.88663893 6.18062019 59.03744507 C3.81802795 57.85254471 1.45421641 56.6701127 -0.90991211 55.48828125 C-1.61697296 55.13295319 -2.32403381 54.77762512 -3.05252075 54.41152954 C-5.89607611 52.73349292 -5.89607611 52.73349292 -9 52 Z " fill="red" transform="translate(213,240)"/>
<path d="M0 0 C18.04575813 15.06685399 28.5197324 35.98081333 31.61328125 59.140625 C31.72294054 60.55549734 31.80494124 61.97270916 31.86328125 63.390625 C31.90324219 64.28652344 31.94320312 65.18242187 31.984375 66.10546875 C32.53875937 90.92232211 23.81791607 113.79957651 7.12109375 132.06640625 C-9.53395265 149.4812448 -32.20589817 159.60094266 -56.33203125 160.45703125 C-79.77158444 160.04792201 -101.52273617 153.39549988 -119.13671875 137.390625 C-120.04035156 136.57980469 -120.94398438 135.76898438 -121.875 134.93359375 C-139.25934986 118.51103365 -148.86871824 96.54995891 -149.58813477 72.74658203 C-149.91200838 49.12496599 -144.01679911 28.28002165 -128.13671875 10.390625 C-127.60820312 9.7203125 -127.0796875 9.05 -126.53515625 8.359375 C-112.54172115 -9.01178581 -90.21257659 -18.61462795 -68.5390625 -21.296875 C-43.0616765 -23.63693342 -19.74423593 -16.0014103 0 0 Z M-72.57421875 2.203125 C-75.99157431 6.04646671 -76.94832895 9.69511681 -77.51171875 14.765625 C-76.88955368 20.77988739 -74.64497196 25.38758857 -70.01171875 29.328125 C-64.58661543 33.22004695 -59.69397614 33.00080229 -53.13671875 32.390625 C-48.2295886 30.07089075 -45.32561395 26.67285569 -42.13671875 22.390625 C-40.31145654 16.91483837 -40.33544852 11.48322153 -42.63671875 6.140625 C-45.77661878 0.58200339 -50.6028648 -1.87225385 -56.57421875 -3.609375 C-62.75818431 -3.609375 -67.9821183 -2.0529681 -72.57421875 2.203125 Z M-120.44921875 30.890625 C-123.91864315 35.04300696 -124.48685216 38.68976068 -124.41796875 43.9765625 C-123.81028085 49.19255034 -121.43723952 53.05495502 -117.82421875 56.765625 C-112.7012922 59.8632085 -107.97845397 60.91335943 -102.12109375 59.92578125 C-97.22057895 58.60418572 -93.91267523 56.39120046 -90.76171875 52.328125 C-88.20008567 47.69748059 -87.47331416 43.62311194 -88.13671875 38.390625 C-90.03532909 32.48865916 -93.11891644 28.91376279 -98.13671875 25.390625 C-106.7382288 22.52345498 -114.39434819 24.1200487 -120.44921875 30.890625 Z M-26.44921875 30.765625 C-29.79710351 35.97344573 -30.5495296 40.16972435 -29.67578125 46.21484375 C-28.31545808 51.70542349 -24.72296585 55.33312693 -20.13671875 58.390625 C-15.0338868 60.82606752 -10.53051636 60.7002701 -5.13671875 59.390625 C0.28490965 56.78407289 3.67336455 52.94893051 5.86328125 47.390625 C6.87109742 41.8069983 6.60286856 36.95219771 3.80078125 31.953125 C1.07115615 28.2502631 -1.68453213 25.7246135 -6.13671875 24.390625 C-14.67141591 23.1821723 -20.35991381 24.51174425 -26.44921875 30.765625 Z M-68.01171875 63.078125 C-69.67076851 66.48839395 -69.81414437 69.71941519 -69.13671875 73.390625 C-67.34307964 76.2006596 -66.1179094 77.90002968 -63.13671875 79.390625 C-57.4420725 79.86676076 -57.4420725 79.86676076 -52.26171875 77.828125 C-49.5705262 74.74116884 -48.77369409 72.42480213 -48.13671875 68.390625 C-49.06910582 64.3813606 -50.89879457 61.90901047 -54.13671875 59.390625 C-59.88692227 57.51555864 -63.61309367 59.11936243 -68.01171875 63.078125 Z M-120.51171875 84.828125 C-123.93367604 90.22428842 -125.17576834 95.02909691 -124.13671875 101.390625 C-121.95918609 106.50152809 -118.79462199 110.32621497 -114.13671875 113.390625 C-109.12446381 115.06137665 -103.83214983 115.45594018 -98.84375 113.484375 C-93.42215116 110.31075617 -90.14648647 106.41992815 -88.13671875 100.390625 C-87.60451246 94.11059076 -88.34561857 89.54828455 -92.13671875 84.390625 C-96.90368014 80.01368772 -101.34825064 78.01218072 -107.9453125 78.109375 C-113.05718646 78.76544438 -116.96579621 81.18888871 -120.51171875 84.828125 Z M-24.88671875 83.640625 C-28.69062624 88.28984527 -30.448373 92.31151137 -30.19921875 98.328125 C-29.41876446 103.83326491 -27.16522485 107.59855493 -23.13671875 111.390625 C-17.93887785 114.52894404 -13.07030864 115.16220903 -7.13671875 114.390625 C-1.69482076 112.576659 1.64161375 109.00799862 4.86328125 104.390625 C6.47699663 99.54947885 6.84017758 94.20451117 5.14453125 89.3203125 C2.57276937 84.529369 -0.76974176 81.63640237 -5.51171875 79.140625 C-12.96572412 77.01090918 -18.9685968 78.79852522 -24.88671875 83.640625 Z M-71.17578125 110.23046875 C-75.23833573 114.71934067 -76.86946725 117.6112094 -77.44921875 123.640625 C-76.94449186 129.69734765 -74.69576212 134.3289341 -70.07421875 138.328125 C-64.74322619 142.07116233 -59.46258266 142.03500999 -53.13671875 141.390625 C-48.24484969 139.03528064 -45.32592933 135.6732792 -42.13671875 131.390625 C-40.27867457 125.81649247 -40.33040491 120.44786932 -42.82421875 115.078125 C-45.54596594 110.29127593 -48.47228234 107.97463777 -53.69921875 106.140625 C-60.32558068 104.69487331 -66.1062534 105.6562396 -71.17578125 110.23046875 Z " fill="red" transform="translate(369.13671875,107.609375)"/>
<path d="M0 0 C14.25482045 13.65052474 23.6996222 30.42944743 24.765625 50.4375 C25.19675988 73.32312176 17.96713102 91.72633441 2.1875 108.4375 C-11.6194719 121.69315184 -30.41931872 128.625 -49.4375 128.625 C-71.97361962 127.20119777 -89.41113008 118.54358704 -104.71875 102.1875 C-118.22817307 86.39186688 -122.67139031 66.96591032 -121.4375 46.625 C-119.02794361 27.12392923 -109.32637742 10.33442004 -94.4375 -2.375 C-66.2478732 -23.13968046 -26.56484772 -24.24858984 0 0 Z M-60.3125 2.125 C-63.13990923 5.78507667 -63.08103085 9.51314311 -62.85546875 14 C-62.25605895 17.76451763 -61.0547806 19.86996779 -58.4375 22.625 C-54.0142599 25.64084552 -49.7055488 26.54029805 -44.4375 25.625 C-40.73231429 24.25216227 -38.03579408 22.38283917 -35.5625 19.25 C-33.71284583 14.93414027 -33.27070057 11.79259601 -33.9375 7.125 C-35.87756887 2.59817264 -38.15114764 0.05230939 -42.4375 -2.375 C-49.83972199 -4.67534329 -54.54387304 -2.89119735 -60.3125 2.125 Z M-98.8125 24.6875 C-101.32341765 29.22646651 -101.04921021 33.55545168 -100.4375 38.625 C-98.91010616 42.84779473 -96.39142384 44.83297612 -92.39453125 46.89453125 C-88.29719281 48.42387713 -84.57780719 48.42387713 -80.48046875 46.89453125 C-76.50577196 44.84442448 -74.19019559 42.71462304 -72.4375 38.625 C-71.05318003 33.72663704 -71.43201208 30.30447181 -73.4375 25.625 C-77.37375473 21.31156116 -80.82410586 18.87154662 -86.75 18.3125 C-92.16263018 18.77119747 -94.82202173 21.22208466 -98.8125 24.6875 Z M-22.8125 24.6875 C-25.3283141 29.23531779 -25.16808881 33.54815327 -24.4375 38.625 C-22.64799365 42.47932136 -21.17415715 44.12273376 -17.6875 46.5 C-13.08353032 48.09368181 -9.05754771 48.59577465 -4.4765625 46.8984375 C-0.50761428 44.83860361 1.80944323 42.71546579 3.5625 38.625 C4.94681997 33.72663704 4.56798792 30.30447181 2.5625 25.625 C-1.37375473 21.31156116 -4.82410586 18.87154662 -10.75 18.3125 C-16.16263018 18.77119747 -18.82202173 21.22208466 -22.8125 24.6875 Z M-55.4375 49.625 C-56.96596661 52.68193322 -56.66992445 55.25484547 -56.4375 58.625 C-55.60416667 61.125 -55.60416667 61.125 -53.4375 62.625 C-50.70224073 63.59003736 -48.32634515 63.94535831 -45.4375 63.625 C-42.27083333 61.79166667 -42.27083333 61.79166667 -40.4375 58.625 C-39.60416667 55.125 -39.60416667 55.125 -40.4375 51.625 C-42.72495378 48.55327635 -44.13207687 46.88608463 -47.9375 46.125 C-50.96358629 46.73021726 -52.94343822 47.82373316 -55.4375 49.625 Z M-99.375 68.6875 C-101.06452514 73.35854008 -101.31216565 77.73386968 -100.4375 82.625 C-98.07368443 86.93188727 -94.96830553 89.7386335 -90.4375 91.625 C-85.19099908 92.11078712 -81.86116728 91.5100004 -77.4375 88.625 C-73.63485934 84.82235934 -71.54869213 82.07341414 -71.4375 76.625 C-72.55465414 70.25722139 -75.08175402 67.05502295 -80.25 63.3125 C-87.92473845 60.90043935 -93.95195465 62.91458076 -99.375 68.6875 Z M-23.375 68.6875 C-25.06452514 73.35854008 -25.31216565 77.73386968 -24.4375 82.625 C-22.07874035 86.92267536 -18.96907001 89.75854875 -14.4375 91.625 C-9.6852844 92.08489183 -7.44050009 92.14578851 -3.1875 89.9375 C0.48793704 86.84679158 3.01964251 84.40867462 4.4375 79.75 C4.64976363 74.44340922 3.62707404 70.88567978 0.1875 66.8125 C-4.03611933 63.29281722 -6.67174636 62.1498623 -12.34375 62.30859375 C-16.92977511 63.00163113 -20.20951408 65.31778919 -23.375 68.6875 Z M-61.375 90.6875 C-63.06552352 95.36130033 -63.3057325 99.73068939 -62.4375 104.625 C-60.40585863 108.43771364 -57.71325252 110.79748485 -54.125 113.125 C-49.2516149 114.0316763 -44.79384107 113.91230165 -40.37109375 111.49609375 C-36.44204559 108.48573744 -34.36582875 105.54521404 -33.5234375 100.640625 C-33.31300768 95.70508917 -34.67327631 92.53000174 -37.8125 88.8125 C-42.03611933 85.29281722 -44.67174636 84.1498623 -50.34375 84.30859375 C-54.92977511 85.00163113 -58.20951408 87.31778919 -61.375 90.6875 Z " fill="red" transform="translate(186.4375,139.375)"/>
<path d="M0 0 C0 48.84 0 97.68 0 148 C-4.38115615 146.53961462 -7.72755097 145.21473457 -11.69140625 143.05078125 C-13.36106445 142.14682617 -13.36106445 142.14682617 -15.06445312 141.22460938 C-16.21880859 140.59361328 -17.37316406 139.96261719 -18.5625 139.3125 C-33.25737225 131.30277229 -48.12609107 123.69340117 -63 116 C-63 88.28 -63 60.56 -63 32 C-51.95077093 26.18461628 -40.93517076 20.40581785 -29.75 14.875 C-20.88643393 10.47648419 -12.07898475 6.00200538 -3.39453125 1.2578125 C-1 0 -1 0 0 0 Z " fill="red" transform="translate(446,258)"/>
</svg>
