<?xml version="1.0" encoding="UTF-8"?>
<!DOCTYPE svg PUBLIC "-//W3C//DTD SVG 1.1//EN" "http://www.w3.org/Graphics/SVG/1.1/DTD/svg11.dtd">

<svg xmlns="http://www.w3.org/2000/svg" version="1.1" width="512px" height="512px " style="shape-rendering:geometricPrecision; text-rendering:geometricPrecision; image-rendering:optimizeQuality; fill-rule:evenodd; clip-rule:evenodd " xmlns:xlink="http://www.w3.org/1999/xlink">
<g><path style="opacity:0.964" fill="red" d="M 15.5,191.5 C 22.4222,191.188 29.2555,191.521 36,192.5C 43.7149,214.931 51.7149,237.264 60,259.5C 60.5,236.836 60.6666,214.169 60.5,191.5C 67.5,191.5 74.5,191.5 81.5,191.5C 81.5,231.833 81.5,272.167 81.5,312.5C 73.9275,313.248 66.4275,314.248 59,315.5C 51.4694,294.575 44.1361,273.575 37,252.5C 36.5,274.497 36.3334,296.497 36.5,318.5C 29.4916,319.084 22.4916,319.751 15.5,320.5C 15.5,277.5 15.5,234.5 15.5,191.5 Z"/></g>
<g><path style="opacity:0.966" fill="red" d="M 100.5,191.5 C 119.5,191.5 138.5,191.5 157.5,191.5C 157.5,198.167 157.5,204.833 157.5,211.5C 145.477,211.301 133.477,211.634 121.5,212.5C 121.5,221.167 121.5,229.833 121.5,238.5C 130.506,238.3 139.506,237.966 148.5,237.5C 148.5,244.5 148.5,251.5 148.5,258.5C 139.5,258.5 130.5,258.5 121.5,258.5C 121.334,268.506 121.5,278.506 122,288.5C 133.773,287.315 145.607,286.315 157.5,285.5C 157.5,292.5 157.5,299.5 157.5,306.5C 138.509,307.935 119.509,309.269 100.5,310.5C 100.5,270.833 100.5,231.167 100.5,191.5 Z"/></g>
<g><path style="opacity:0.968" fill="red" d="M 169.5,191.5 C 190.5,191.5 211.5,191.5 232.5,191.5C 232.5,198.167 232.5,204.833 232.5,211.5C 225.5,211.5 218.5,211.5 211.5,211.5C 211.5,242.5 211.5,273.5 211.5,304.5C 204.5,304.5 197.5,304.5 190.5,304.5C 190.5,273.5 190.5,242.5 190.5,211.5C 183.5,211.5 176.5,211.5 169.5,211.5C 169.5,204.833 169.5,198.167 169.5,191.5 Z"/></g>
<g><path style="opacity:0.959" fill="red" d="M 244.5,191.5 C 263.833,191.5 283.167,191.5 302.5,191.5C 302.5,198.167 302.5,204.833 302.5,211.5C 290.167,211.5 277.833,211.5 265.5,211.5C 265.5,220.167 265.5,228.833 265.5,237.5C 274.833,237.5 284.167,237.5 293.5,237.5C 293.5,244.167 293.5,250.833 293.5,257.5C 284.167,257.5 274.833,257.5 265.5,257.5C 265.5,272.833 265.5,288.167 265.5,303.5C 258.5,303.5 251.5,303.5 244.5,303.5C 244.5,266.167 244.5,228.833 244.5,191.5 Z"/></g>
<g><path style="opacity:0.96" fill="red" d="M 314.5,191.5 C 321.5,191.5 328.5,191.5 335.5,191.5C 335.5,222.5 335.5,253.5 335.5,284.5C 346.797,285.535 358.13,286.202 369.5,286.5C 369.5,293.5 369.5,300.5 369.5,307.5C 351.186,306.343 332.853,305.676 314.5,305.5C 314.5,267.5 314.5,229.5 314.5,191.5 Z"/></g>
<g><path style="opacity:0.95" fill="red" d="M 385.5,191.5 C 392.5,191.5 399.5,191.5 406.5,191.5C 406.5,231.167 406.5,270.833 406.5,310.5C 399.468,310.073 392.468,309.406 385.5,308.5C 385.5,269.5 385.5,230.5 385.5,191.5 Z"/></g>
<g><path style="opacity:0.946" fill="red" d="M 423.5,191.5 C 431.196,191.169 438.862,191.503 446.5,192.5C 450.382,202.987 454.549,213.32 459,223.5C 463.309,212.901 467.809,202.401 472.5,192C 480.188,191.169 487.855,191.335 495.5,192.5C 486.962,212.407 478.296,232.24 469.5,252C 479.056,274.501 487.722,297.335 495.5,320.5C 487.339,320.001 479.339,318.668 471.5,316.5C 467,304.833 462.5,293.167 458,281.5C 452.909,292.017 448.076,302.684 443.5,313.5C 443,313.833 442.5,314.167 442,314.5C 435.881,313.381 429.714,312.547 423.5,312C 422.572,311.612 421.905,310.945 421.5,310C 430.028,290.749 438.361,271.416 446.5,252C 438.529,231.915 430.862,211.748 423.5,191.5 Z"/></g>
</svg>
