<?xml version="1.0" encoding="UTF-8"?>
<svg version="1.1" xmlns="http://www.w3.org/2000/svg" width="242" height="227">
<path d="M0 0 C79.86 0 159.72 0 242 0 C242 74.91 242 149.82 242 227 C162.14 227 82.28 227 0 227 C0 152.09 0 77.18 0 0 Z " fill="#050505" transform="translate(0,0)"/>
<path d="M0 0 C79.86 0 159.72 0 242 0 C242 74.91 242 149.82 242 227 C162.14 227 82.28 227 0 227 C0 152.09 0 77.18 0 0 Z M51.83984375 40.01171875 C48.32836496 41.23373269 44.79454157 42.3784636 41.25 43.5 C40.56333252 43.7180127 39.87666504 43.93602539 39.16918945 44.16064453 C34.77302494 45.5279738 30.38529785 46.61812413 25.875 47.5625 C21.06131851 48.63885114 17.52923779 49.47076221 14 53 C13.40247972 56.4357416 13.82748263 58.52649566 15.0159483 61.78844929 C16.0649707 65.21203834 16.2479037 67.93675411 16.24482727 71.5098114 C16.24876495 72.80108948 16.25270264 74.09236755 16.25675964 75.42277527 C16.25115157 76.84133969 16.24539403 78.25990353 16.23950195 79.6784668 C16.24061558 81.18185521 16.24267455 82.68524318 16.24560547 84.18862915 C16.25031797 87.41833104 16.2492179 90.64796016 16.24382973 93.87766075 C16.23621247 98.98276884 16.24688244 104.08773705 16.2610321 109.19282532 C16.29875498 123.70676245 16.31693644 138.22063515 16.30541992 152.73461914 C16.29921171 160.75641163 16.31073785 168.77797767 16.34186524 176.79971439 C16.36055531 181.87704676 16.35716879 186.95373945 16.33769763 192.03106153 C16.33083264 195.1845184 16.34473856 198.33762551 16.36464691 201.49101639 C16.36970823 202.9555719 16.36617309 204.42018551 16.35351372 205.88469505 C16.33748742 207.88012413 16.35493826 209.87573927 16.3742218 211.87113953 C16.37438954 212.98885585 16.37455729 214.10657217 16.37473011 215.25815868 C16.75415589 218.13959432 16.75415589 218.13959432 19.07332706 219.85840321 C22.60056952 221.234262 25.72325581 221.42330374 29.45254517 221.39440918 C30.56446277 221.40354584 30.56446277 221.40354584 31.69884336 221.41286707 C34.17780348 221.42949003 36.65624957 221.42472246 39.13525391 221.41992188 C40.91435784 221.4272624 42.69345701 221.43584858 44.47254944 221.44558716 C49.30085537 221.46780789 54.12899068 221.47073375 58.95734072 221.46883965 C62.98604138 221.46872003 67.01470577 221.47728016 71.04339635 221.48561716 C80.54360392 221.50485135 90.04372361 221.50773418 99.54394531 221.50097656 C109.35357536 221.49432763 119.16283018 221.51723432 128.9723841 221.55429029 C137.39031861 221.58493866 145.80813208 221.59635286 154.22612131 221.59245348 C159.25592057 221.59038181 164.28542754 221.59593013 169.3151741 221.62034607 C174.04148054 221.64253191 178.7671739 221.64080396 183.49348259 221.62041855 C185.23056828 221.61699453 186.96769461 221.62215714 188.70472527 221.63640213 C191.07101534 221.65447317 193.43519813 221.64193982 195.80142212 221.62145996 C196.49353464 221.63397781 197.18564716 221.64649566 197.89873278 221.65939283 C200.04442118 221.67508348 200.04442118 221.67508348 203 221 C206.14713209 217.48872654 206.37935971 214.34000537 206.39872742 209.74211121 C206.41126556 208.48152893 206.42380371 207.22094666 206.4367218 205.92216492 C206.43554785 204.53298924 206.43408874 203.14381378 206.43237305 201.75463867 C206.44139302 200.28593115 206.45172083 198.81723117 206.46325684 197.34854126 C206.49082549 193.36753943 206.50011114 189.38668046 206.50611091 185.40559554 C206.51549494 181.24285841 206.54169836 177.08022796 206.56611633 172.91755676 C206.60978423 165.03769171 206.6383294 157.15784736 206.66143972 149.27789813 C206.68848984 140.30570289 206.73240146 131.33361495 206.77772844 122.36149633 C206.87057893 103.90770679 206.94003194 85.45392771 207 67 C190.5 67 174 67 157 67 C157 67.33 157 67.66 157 68 C158.65 68 160.3 68 162 68 C160.76226808 70.61065302 159.51066073 73.21294605 158.25 75.8125 C157.72792969 76.91948242 157.72792969 76.91948242 157.1953125 78.04882812 C156.84726563 78.76103516 156.49921875 79.47324219 156.140625 80.20703125 C155.82641602 80.8616333 155.51220703 81.51623535 155.18847656 82.19067383 C153.70599208 84.44759504 152.32215811 85.61920105 150 87 C147.61816406 87.43237305 147.61816406 87.43237305 145.015625 87.51171875 C144.08105469 87.54716797 143.14648438 87.58261719 142.18359375 87.61914062 C141.21550781 87.64169922 140.24742187 87.66425781 139.25 87.6875 C138.26644531 87.72166016 137.28289062 87.75582031 136.26953125 87.79101562 C133.84646801 87.87335273 131.42376002 87.94254838 129 88 C129.49371094 87.09636719 129.98742187 86.19273438 130.49609375 85.26171875 C131.14335583 84.07038131 131.79048426 82.87897125 132.4375 81.6875 C132.92573242 80.79514648 132.92573242 80.79514648 133.42382812 79.88476562 C134.83737384 77.27626374 136.05948633 74.82154101 137 72 C139.8201938 70.28773948 142.92955871 69.1940605 146 68 C146 67.67 146 67.34 146 67 C116.96 67 87.92 67 58 67 C58.33 65.68 58.66 64.36 59 63 C59.72469482 62.86408447 60.44938965 62.72816895 61.19604492 62.58813477 C63.80768709 62.04033799 66.31082989 61.36381287 68.86328125 60.58984375 C69.74951172 60.32236328 70.63574219 60.05488281 71.54882812 59.77929688 C72.9168457 59.36260742 72.9168457 59.36260742 74.3125 58.9375 C75.24384766 58.65583984 76.17519531 58.37417969 77.13476562 58.08398438 C79.42381547 57.39140006 81.71219287 56.69667622 84 56 C83.505 54.515 83.505 54.515 83 53 C81.26410766 52.26247324 81.26410766 52.26247324 79.125 51.8125 C72.99064595 49.95540087 67.58645154 46.46643225 63 42 C63 40.68 63 39.36 63 38 C58.91019178 37.60421211 55.67081219 38.66673649 51.83984375 40.01171875 Z " fill="#FBFBFB" transform="translate(0,0)"/>
<path d="M0 0 C55.44 0 110.88 0 168 0 C168 1.65 168 3.3 168 5 C150.84 5 133.68 5 116 5 C116 14.9 116 24.8 116 35 C133.16 35 150.32 35 168 35 C168 36.65 168 38.3 168 40 C148.2 40 128.4 40 108 40 C108 51.55 108 63.1 108 75 C127.47 75 146.94 75 167 75 C167 76.65 167 78.3 167 80 C111.89 80 56.78 80 0 80 C0 78.35 0 76.7 0 75 C33.99 75 67.98 75 103 75 C103 70.38 103 65.76 103 61 C69.01 61 35.02 61 0 61 C0 59.02 0 57.04 0 55 C33.99 55 67.98 55 103 55 C103 50.05 103 45.1 103 40 C69.67 40 36.34 40 2 40 C2 38.68 2 37.36 2 36 C19.16 36 36.32 36 54 36 C54 25.77 54 15.54 54 5 C36.18 5 18.36 5 0 5 C0 3.35 0 1.7 0 0 Z " fill="#C9C9C9" transform="translate(27,105)"/>
<path d="M0 0 C1.18271484 0.01289062 2.36542969 0.02578125 3.58398438 0.0390625 C4.77958984 0.07257812 5.97519531 0.10609375 7.20703125 0.140625 C8.44517578 0.15867187 9.68332031 0.17671875 10.95898438 0.1953125 C13.9800049 0.24196919 16.99933435 0.30741517 20.01953125 0.390625 C20.6994427 1.92649641 21.36284665 3.46968001 22.01953125 5.015625 C22.39078125 5.87414062 22.76203125 6.73265625 23.14453125 7.6171875 C24.1103963 10.67863477 24.16925314 13.19967727 24.01953125 16.390625 C9.93722371 21.66736062 -4.23764709 26.62797934 -18.48046875 31.453125 C-19.54921234 31.81591553 -20.61795593 32.17870605 -21.71908569 32.55249023 C-37.54725903 37.92295453 -53.40308472 43.20562251 -69.29296875 48.390625 C-70.21319824 48.69171173 -71.13342773 48.99279846 -72.08154297 49.30300903 C-74.66784819 50.14813499 -77.2554905 50.98900583 -79.84375 51.828125 C-80.59977005 52.07521713 -81.3557901 52.32230927 -82.13471985 52.57688904 C-89.3653759 54.90788606 -93.13756725 55.88941568 -100.1328125 52.9140625 C-105.52466602 50.02953181 -110.22432044 46.21515663 -114.98046875 42.390625 C-114.65046875 41.070625 -114.32046875 39.750625 -113.98046875 38.390625 C-114.64046875 38.060625 -115.30046875 37.730625 -115.98046875 37.390625 C-97.33035394 30.97432301 -78.66568835 24.60324111 -59.953125 18.37109375 C-59.31706644 18.15924376 -58.68100788 17.94739376 -58.02567482 17.72912407 C-51.06556944 15.41149574 -44.10378663 13.0989618 -37.14086914 10.78979492 C-35.95154282 10.39476273 -34.76221649 9.99973053 -33.53684998 9.59272766 C-31.3149396 8.85478629 -29.09261167 8.11810032 -26.86976624 7.38298035 C-21.92209846 5.73908905 -17.02786175 4.03046617 -12.16040039 2.16162109 C-7.99192076 0.63499269 -4.4819879 -0.08745342 0 0 Z " fill="#1A1A1A" transform="translate(176.98046875,-0.390625)"/>
<path d="M0 0 C17.49 0 34.98 0 53 0 C53 9.9 53 19.8 53 30 C35.84 30 18.68 30 1 30 C-0.41499902 20.09500687 0 10.00555401 0 0 Z " fill="#020202" transform="translate(85,110)"/>
<path d="M0 0 C4.59225513 10.37357631 4.59225513 10.37357631 4 16 C-2.32574802 18.35426595 -8.65965412 20.685341 -15 23 C-15.91813477 23.33612305 -16.83626953 23.67224609 -17.78222656 24.01855469 C-20.47661981 25.00067677 -23.17505355 25.97076277 -25.875 26.9375 C-26.71192383 27.24373291 -27.54884766 27.54996582 -28.41113281 27.86547852 C-32.38260406 29.27477559 -35.71662137 30.42486954 -40 30 C-40 29.34 -40 28.68 -40 28 C-39.34 28 -38.68 28 -38 28 C-38.35652444 25.25053187 -38.84937472 24.14683597 -40.86328125 22.18359375 C-47.30921762 17.58816543 -53.22501292 15.40270386 -61 14 C-57.45659467 8.68489201 -50.43074356 7.38414002 -44.5625 5.3125 C-43.85335449 5.0595517 -43.14420898 4.80660339 -42.41357422 4.54598999 C-28.14287661 -0.44565988 -15.11848943 -1.33916253 0 0 Z " fill="#191919" transform="translate(197,0)"/>
<path d="M0 0 C54.45 0 108.9 0 165 0 C165 1.65 165 3.3 165 5 C110.55 5 56.1 5 0 5 C0 3.35 0 1.7 0 0 Z " fill="#CACACA" transform="translate(28,198)"/>
<path d="M0 0 C73.755 0.495 73.755 0.495 149 1 C149 1.33 149 1.66 149 2 C134.15 2.33 119.3 2.66 104 3 C103.01 5.97 102.02 8.94 101 12 C99.75390625 14.5234375 99.75390625 14.5234375 98.5625 16.375 C98.17191406 17.00148438 97.78132813 17.62796875 97.37890625 18.2734375 C95.16526496 21.04519232 93.20088458 22.8282868 89.61816406 23.34057617 C88.75932617 23.32486572 87.90048828 23.30915527 87.015625 23.29296875 C86.08105469 23.28330078 85.14648438 23.27363281 84.18359375 23.26367188 C83.21550781 23.23853516 82.24742187 23.21339844 81.25 23.1875 C80.26644531 23.17396484 79.28289062 23.16042969 78.26953125 23.14648438 C75.84579585 23.11118726 73.42317855 23.06188054 71 23 C74.30084773 14.62428065 77.24238545 8.17174303 85 3 C56.95 2.67 28.9 2.34 0 2 C0 1.34 0 0.68 0 0 Z " fill="#DEDEDE" transform="translate(58,65)"/>
<path d="M0 0 C22.77 0 45.54 0 69 0 C69.495 1.485 69.495 1.485 70 3 C65.38 3 60.76 3 56 3 C56.05329468 4.4837915 56.05329468 4.4837915 56.10766602 5.99755859 C56.2378588 9.66128574 56.36108074 13.32521967 56.48217773 16.98925781 C56.53560756 18.57623729 56.59093771 20.16315395 56.64819336 21.75 C56.73007724 24.02850804 56.80516524 26.30715322 56.87890625 28.5859375 C56.90594131 29.29744965 56.93297638 30.00896179 56.96083069 30.74203491 C57.11387171 35.77225659 57.11387171 35.77225659 56 38 C37.52 38 19.04 38 0 38 C0 36.68 0 35.36 0 34 C17.16 34 34.32 34 52 34 C52 23.77 52 13.54 52 3 C34.84 3 17.68 3 0 3 C0 2.01 0 1.02 0 0 Z " fill="#ECECEC" transform="translate(29,107)"/>
<path d="M0 0 C4.65764814 2.98089481 8.87786908 6.46631993 13.125 10 C10.49400335 15.13427501 8.03292281 16.39845979 2.7421875 18.26171875 C-1.97176406 19.59147524 -5.5726591 20.18462327 -10.16015625 17.82421875 C-12.49416865 16.3162675 -14.68341964 14.70725321 -16.875 13 C-17.50277344 12.54753906 -18.13054687 12.09507813 -18.77734375 11.62890625 C-20.4375 10.375 -20.4375 10.375 -22.875 8 C-22.875 6.68 -22.875 5.36 -22.875 4 C-8.1952847 -2.85053381 -8.1952847 -2.85053381 0 0 Z " fill="#EFEFEF" transform="translate(115.875,25)"/>
<path d="M0 0 C0.70511719 0.46019531 1.41023438 0.92039062 2.13671875 1.39453125 C6.38381527 4.3222854 6.38381527 4.3222854 8 6 C8 7.32 8 8.64 8 10 C1.77658735 13.1654889 -4.89033106 16.35157704 -12 16 C-16.15021234 14.23069895 -19.50771688 11.83250324 -23 9 C-23.90878906 8.28457031 -23.90878906 8.28457031 -24.8359375 7.5546875 C-26.25 6.3125 -26.25 6.3125 -28 4 C-27.8828125 1.96484375 -27.8828125 1.96484375 -27 0 C-19.10366933 -4.35435518 -7.56232964 -5.0415531 0 0 Z " fill="#F1F1F1" transform="translate(151,18)"/>
<path d="M0 0 C0.89267578 0.00644531 1.78535156 0.01289062 2.70507812 0.01953125 C4.09823242 0.04466797 4.09823242 0.04466797 5.51953125 0.0703125 C6.45990234 0.07933594 7.40027344 0.08835937 8.36914062 0.09765625 C10.69036093 0.12122194 13.01106769 0.15412134 15.33203125 0.1953125 C13.86755819 4.14428962 12.01393489 7.68314238 9.89453125 11.3203125 C8.99927734 12.87105469 8.99927734 12.87105469 8.0859375 14.453125 C5.51165689 18.47794679 5.51165689 18.47794679 3.33203125 20.1953125 C0.97192383 20.53588867 0.97192383 20.53588867 -1.7734375 20.48828125 C-2.75634766 20.47861328 -3.73925781 20.46894531 -4.75195312 20.45898438 C-5.77611328 20.43384766 -6.80027344 20.40871094 -7.85546875 20.3828125 C-8.89123047 20.36927734 -9.92699219 20.35574219 -10.99414062 20.34179688 C-13.55260574 20.30642639 -16.11002655 20.25706794 -18.66796875 20.1953125 C-17.0322653 15.88491996 -14.86776943 12.26990701 -12.23046875 8.5078125 C-11.63782227 7.63672852 -11.63782227 7.63672852 -11.03320312 6.74804688 C-7.82766631 2.13442067 -5.70260469 -0.07264465 0 0 Z " fill="#F1F1F1" transform="translate(83.66796875,67.8046875)"/>
<path d="M0 0 C0.74056641 0.00902344 1.48113281 0.01804687 2.24414062 0.02734375 C4.05873467 0.05075787 5.87316071 0.08662385 7.6875 0.125 C5.62773047 7.76782903 2.33752608 14.47497392 -3.3125 20.125 C-5.46728516 20.35205078 -5.46728516 20.35205078 -8.1015625 20.3203125 C-9.04257813 20.31386719 -9.98359375 20.30742188 -10.953125 20.30078125 C-11.93796875 20.28402344 -12.9228125 20.26726562 -13.9375 20.25 C-14.93007812 20.24097656 -15.92265625 20.23195313 -16.9453125 20.22265625 C-19.40128134 20.19904116 -21.85677168 20.16610799 -24.3125 20.125 C-22.7546975 14.74729025 -21.32402492 10.36891688 -17.4375 6.1875 C-16.78007813 5.45660156 -16.12265625 4.72570312 -15.4453125 3.97265625 C-10.69964564 -0.13851669 -6.05464084 -0.14067977 0 0 Z " fill="#ECECEC" transform="translate(122.3125,67.875)"/>
<path d="M0 0 C1.33716789 1.01440322 2.66129183 2.04620276 3.97265625 3.09375 C4.65650391 3.61839844 5.34035156 4.14304687 6.04492188 4.68359375 C7.71992058 5.97205429 9.37919313 7.28091438 11.03515625 8.59375 C9.60649444 12.02395287 9.20313167 12.50976229 5.66015625 14.28125 C-1.08336638 16.72287026 -7.14129817 17.99760695 -13.98828125 14.79296875 C-18.30257383 12.17540389 -22.12232993 8.84867619 -25.96484375 5.59375 C-23.84012646 3.27708005 -21.84856741 1.84416422 -19.02734375 0.46875 C-18.35832031 0.13617188 -17.68929687 -0.19640625 -17 -0.5390625 C-11.0898079 -3.05741691 -5.49495694 -3.77349941 0 0 Z " fill="#F0F0F0" transform="translate(87.96484375,36.40625)"/>
<path d="M0 0 C0.88945312 0.00966797 1.77890625 0.01933594 2.6953125 0.02929688 C3.61570313 0.05443359 4.53609375 0.07957031 5.484375 0.10546875 C6.42023438 0.11900391 7.35609375 0.13253906 8.3203125 0.14648438 C10.62558827 0.18176921 12.9296856 0.23106594 15.234375 0.29296875 C14.1326556 2.41484248 13.00618964 4.49487203 11.796875 6.55859375 C10.17386728 9.29826521 10.17386728 9.29826521 8.859375 12.33984375 C6.93127084 15.91796012 5.571201 17.92069401 2.234375 20.29296875 C-4.64833704 21.66339566 -11.82800326 20.96547411 -18.765625 20.29296875 C-17.29831014 16.19356332 -15.29671416 12.79072186 -12.890625 9.16796875 C-12.21257812 8.13414063 -11.53453125 7.1003125 -10.8359375 6.03515625 C-7.65158268 1.81738817 -5.3715823 -0.10329966 0 0 Z " fill="#E9E9E9" transform="translate(179.765625,67.70703125)"/>
<path d="M0 0 C0.61552734 0.4125 1.23105469 0.825 1.86523438 1.25 C3.52235936 2.36312838 5.16802148 3.49327193 6.8125 4.625 C7.8025 5.285 8.7925 5.945 9.8125 6.625 C8.8125 9.625 8.8125 9.625 6.88671875 10.7578125 C6.09910156 11.08523437 5.31148437 11.41265625 4.5 11.75 C3.72011719 12.08257813 2.94023437 12.41515625 2.13671875 12.7578125 C-2.41600251 14.45647489 -6.30376567 15.18542853 -11.1875 14.625 C-16.71361213 11.75604283 -21.51280641 7.7003739 -26.1875 3.625 C-25.625 1.8125 -25.625 1.8125 -24.1875 -0.375 C-14.95204291 -4.99272854 -8.56260089 -5.9581812 0 0 Z " fill="#F0F0F0" transform="translate(179.1875,8.375)"/>
<path d="M0 0 C7.59 0 15.18 0 23 0 C27.5 11.25 27.5 11.25 27 16 C23.03302114 17.80317221 19.3177458 18.49202991 15 19 C15 17.68 15 16.36 15 15 C14.46890625 14.75507813 13.9378125 14.51015625 13.390625 14.2578125 C10.3617535 12.66419057 7.58776027 10.78740366 4.75 8.875 C3.67234375 8.15054687 2.5946875 7.42609375 1.484375 6.6796875 C0.66453125 6.12539062 -0.1553125 5.57109375 -1 5 C-0.67 3.35 -0.34 1.7 0 0 Z " fill="#070707" transform="translate(174,0)"/>
<path d="M0 0 C0.99 1.32 1.98 2.64 3 4 C1.0801382 7.55174433 -0.54368742 9.88061365 -4 12 C-6.38183594 12.34057617 -6.38183594 12.34057617 -8.984375 12.29296875 C-9.91894531 12.28330078 -10.85351562 12.27363281 -11.81640625 12.26367188 C-12.78449219 12.23853516 -13.75257813 12.21339844 -14.75 12.1875 C-15.73355469 12.17396484 -16.71710938 12.16042969 -17.73046875 12.14648438 C-20.15420415 12.11118726 -22.57682145 12.06188054 -25 12 C-24.34 10.35 -23.68 8.7 -23 7 C-22.67 7.66 -22.34 8.32 -22 9 C-13.43543645 8.69025087 -8.0037941 7.69580994 -1.5625 1.75 C-1.046875 1.1725 -0.53125 0.595 0 0 Z " fill="#D4D4D4" transform="translate(154,76)"/>
<path d="M0 0 C1.52519276 0.08937803 3.04681929 0.24537146 4.5625 0.4375 C5.80193359 0.59025391 5.80193359 0.59025391 7.06640625 0.74609375 C7.70449219 0.82988281 8.34257813 0.91367187 9 1 C9.87890625 7.15234375 9.87890625 7.15234375 10 9 C8.12356239 10.87643761 5.50194299 10.17984987 3.0078125 10.23046875 C1 10 1 10 -2 8 C-1.125 1.125 -1.125 1.125 0 0 Z " fill="#DADADA" transform="translate(25,55)"/>
<path d="M0 0 C1.9912742 0.98678699 3.97119577 1.98454834 5.9296875 3.03515625 C9.96281299 5.16510003 13.39106378 6.53910638 18 7 C17.67 7.66 17.34 8.32 17 9 C9.74 9 2.48 9 -5 9 C-3.47426795 5.18566987 -2.47253678 3.03447696 0 0 Z " fill="#D3D3D3" transform="translate(70,79)"/>
<path d="M0 0 C-0.69921875 1.95703125 -0.69921875 1.95703125 -2 4 C-4.20703125 4.57421875 -4.20703125 4.57421875 -6.8125 4.6875 C-8.14861328 4.76871094 -8.14861328 4.76871094 -9.51171875 4.8515625 C-10.74341797 4.92503906 -10.74341797 4.92503906 -12 5 C-13.67278999 5.3011022 -15.34478822 5.61378392 -17 6 C-17.33 5.34 -17.66 4.68 -18 4 C-15.75438718 3.13237686 -13.50473745 2.2807897 -11.25 1.4375 C-10.61578125 1.19064453 -9.9815625 0.94378906 -9.328125 0.68945312 C-5.88990821 -0.58197079 -3.47831118 -1.46686355 0 0 Z " fill="#1E1E1E" transform="translate(174,1)"/>
<path d="M0 0 C-1.38993239 2.77986478 -2.94737735 2.95923901 -5.8125 4.0625 C-6.68519531 4.40410156 -7.55789062 4.74570312 -8.45703125 5.09765625 C-10.63020969 5.86878408 -12.75332971 6.49201161 -15 7 C-15 6.34 -15 5.68 -15 5 C-15.66 4.67 -16.32 4.34 -17 4 C-14.73291675 3.1344953 -12.46224921 2.28240685 -10.1875 1.4375 C-9.54490234 1.19064453 -8.90230469 0.94378906 -8.24023438 0.68945312 C-3.33984375 -1.11328125 -3.33984375 -1.11328125 0 0 Z " fill="#2A2A2A" transform="translate(78,33)"/>
<path d="M0 0 C0.52078125 0.36867188 1.0415625 0.73734375 1.578125 1.1171875 C-0.87902047 1.95417136 -3.33746357 2.78691174 -5.796875 3.6171875 C-6.84488281 3.97490234 -6.84488281 3.97490234 -7.9140625 4.33984375 C-13.1953125 6.1171875 -13.1953125 6.1171875 -15.421875 6.1171875 C-15.421875 5.1271875 -15.421875 4.1371875 -15.421875 3.1171875 C-13.34476754 2.39080021 -11.25987188 1.68665342 -9.171875 0.9921875 C-8.01171875 0.59773438 -6.8515625 0.20328125 -5.65625 -0.203125 C-2.421875 -0.8828125 -2.421875 -0.8828125 0 0 Z " fill="#2F2F2F" transform="translate(157.421875,29.8828125)"/>
<path d="M0 0 C-2.97913419 1.98608946 -5.57133543 3.06830564 -8.9375 4.25 C-9.97777344 4.62640625 -11.01804688 5.0028125 -12.08984375 5.390625 C-15 6 -15 6 -17.37890625 5.109375 C-17.91386719 4.74328125 -18.44882813 4.3771875 -19 4 C-18.22914063 3.72285156 -17.45828125 3.44570313 -16.6640625 3.16015625 C-15.66117188 2.79792969 -14.65828125 2.43570312 -13.625 2.0625 C-12.62726563 1.70285156 -11.62953125 1.34320312 -10.6015625 0.97265625 C-6.31091279 -0.63150558 -4.63675236 -0.90719068 0 0 Z " fill="#2B2B2B" transform="translate(194,18)"/>
<path d="M0 0 C-3.7559214 3.42931954 -8.23466745 4.56429083 -13 6 C-13.33 5.01 -13.66 4.02 -14 3 C-12.04486839 2.303447 -10.08577524 1.61800435 -8.125 0.9375 C-7.03445312 0.55464844 -5.94390625 0.17179687 -4.8203125 -0.22265625 C-2 -1 -2 -1 0 0 Z " fill="#333333" transform="translate(107,23)"/>
<path d="M0 0 C0 0.33 0 0.66 0 1 C-2.28940956 1.38854209 -4.58164574 1.7604628 -6.875 2.125 C-8.78925781 2.43824219 -8.78925781 2.43824219 -10.7421875 2.7578125 C-12.35480469 2.87769531 -12.35480469 2.87769531 -14 3 C-14.66 2.34 -15.32 1.68 -16 1 C-9.89468757 -1.57502973 -6.23160816 -2.51916075 0 0 Z " fill="#3A3A3A" transform="translate(142,14)"/>
<path d="M0 0 C0.33 0.66 0.66 1.32 1 2 C2.98 2 4.96 2 7 2 C6.67 2.99 6.34 3.98 6 5 C3.36 5 0.72 5 -2 5 C-1.34 3.35 -0.68 1.7 0 0 Z " fill="#CECECE" transform="translate(131,83)"/>
<path d="M0 0 C-0.33 0.66 -0.66 1.32 -1 2 C-3.06640625 2.6328125 -3.06640625 2.6328125 -5.5625 3.125 C-6.38878906 3.29257813 -7.21507812 3.46015625 -8.06640625 3.6328125 C-8.70449219 3.75398437 -9.34257812 3.87515625 -10 4 C-10.33 3.34 -10.66 2.68 -11 2 C-9.73392393 1.46770674 -8.46189588 0.94955456 -7.1875 0.4375 C-6.47980469 0.14746094 -5.77210938 -0.14257812 -5.04296875 -0.44140625 C-3 -1 -3 -1 0 0 Z " fill="#373737" transform="translate(167,3)"/>
<path d="M0 0 C0 0.66 0 1.32 0 2 C-1.24420647 2.5345256 -2.49570936 3.05208611 -3.75 3.5625 C-4.44609375 3.85253906 -5.1421875 4.14257812 -5.859375 4.44140625 C-8.30012784 5.07831803 -9.6403655 4.80248831 -12 4 C-8.36043372 1.57362248 -4.44144233 0 0 0 Z " fill="#373737" transform="translate(95,50)"/>
<path d="M0 0 C0.66 0.33 1.32 0.66 2 1 C1.67 1.99 1.34 2.98 1 4 C-1.0625 4.6875 -1.0625 4.6875 -3 5 C-3 4.34 -3 3.68 -3 3 C-3.66 2.67 -4.32 2.34 -5 2 C-2.625 0.9375 -2.625 0.9375 0 0 Z " fill="#373737" transform="translate(66,35)"/>
</svg>
